# xmcd CD database file
#
# Track frame offsets:
#	150
#	18580
#	34856
#	56362
#	77284
#	96322
#	112869
#	134785
#	151423
#	169589
#
# Disc length: 2440 seconds
#
# Revision: 0
# Processed by: cddbd v1.4PL0 Copyright (c) Steve Scherf et al.
# Submitted via: CDex 1.51
#
DISCID=7509860a
DTITLE=Diverse - Jesus Og Josefine
DYEAR=2003
DGENRE=Salsa
TTITLE0=Julie Berthelsen and Martin Brygmann - Jesus Og Josefine
TTITLE1=Vicky Singh - December
TTITLE2=C.V. Jørgensen - Flammerne
TTITLE3=Søs Fenger - Stjernerne Små, Overnpå
TTITLE4=Allan Jensen - Tag Det Roligt
TTITLE5=Peter Frödin - Krystaller
TTITLE6=Kaya Brüel - Ensom
TTITLE7=Jimmy Jørgensen - Smil Prinsesse
TTITLE8=Frida Hilarius - Julemanden
TTITLE9=Stig Kreutzfeldt - Så Blev Der Stille
EXTD=YEAR: 2003
EXTT0=
EXTT1=
EXTT2=
EXTT3=
EXTT4=
EXTT5=
EXTT6=
EXTT7=
EXTT8=
EXTT9=
PLAYORDER=
